TITLE ""
FILE "2Q_t_1135-1152.mp3" MP3
  TRACK 01 AUDIO
    TITLE "2Q_t_1135-1152_01"
    INDEX 01 00:00:00
  TRACK 02 AUDIO
    TITLE "2Q_t_1135-1152_02"
    INDEX 01 00:00:08
  TRACK 03 AUDIO
    TITLE "2Q_t_1135-1152_03"
    INDEX 01 00:01:45
  TRACK 04 AUDIO
    TITLE "2Q_t_1135-1152_04"
    INDEX 01 00:02:17
  TRACK 05 AUDIO
    TITLE "2Q_t_1135-1152_05"
    INDEX 01 00:04:20
  TRACK 06 AUDIO
    TITLE "2Q_t_1135-1152_06"
    INDEX 01 00:04:67
  TRACK 07 AUDIO
    TITLE "2Q_t_1135-1152_07"
    INDEX 01 00:06:13
  TRACK 08 AUDIO
    TITLE "2Q_t_1135-1152_08"
    INDEX 01 00:06:60
  TRACK 09 AUDIO
    TITLE "2Q_t_1135-1152_09"
    INDEX 01 00:09:01
  TRACK 10 AUDIO
    TITLE "2Q_t_1135-1152_10"
    INDEX 01 00:09:50
  TRACK 11 AUDIO
    TITLE "2Q_t_1135-1152_11"
    INDEX 01 00:11:04
  TRACK 12 AUDIO
    TITLE "2Q_t_1135-1152_12"
    INDEX 01 00:11:63
  TRACK 13 AUDIO
    TITLE "2Q_t_1135-1152_13"
    INDEX 01 00:13:72
  TRACK 14 AUDIO
    TITLE "2Q_t_1135-1152_14"
    INDEX 01 00:14:42
  TRACK 15 AUDIO
    TITLE "2Q_t_1135-1152_15"
    INDEX 01 00:15:75
  TRACK 16 AUDIO
    TITLE "2Q_t_1135-1152_16"
    INDEX 01 00:16:56
  TRACK 17 AUDIO
    TITLE "2Q_t_1135-1152_17"
    INDEX 01 00:18:57
  TRACK 18 AUDIO
    TITLE "2Q_t_1135-1152_18"
    INDEX 01 00:19:27
  TRACK 19 AUDIO
    TITLE "2Q_t_1135-1152_19"
    INDEX 01 00:20:29
  TRACK 20 AUDIO
    TITLE "2Q_t_1135-1152_20"
    INDEX 01 00:21:09
  TRACK 21 AUDIO
    TITLE "2Q_t_1135-1152_21"
    INDEX 01 00:22:06
  TRACK 22 AUDIO
    TITLE "2Q_t_1135-1152_22"
    INDEX 01 00:22:53
  TRACK 23 AUDIO
    TITLE "2Q_t_1135-1152_23"
    INDEX 01 00:23:66
  TRACK 24 AUDIO
    TITLE "2Q_t_1135-1152_24"
    INDEX 01 00:24:44
  TRACK 25 AUDIO
    TITLE "2Q_t_1135-1152_25"
    INDEX 01 00:26:21
  TRACK 26 AUDIO
    TITLE "2Q_t_1135-1152_26"
    INDEX 01 00:26:68
  TRACK 27 AUDIO
    TITLE "2Q_t_1135-1152_27"
    INDEX 01 00:28:03
  TRACK 28 AUDIO
    TITLE "2Q_t_1135-1152_28"
    INDEX 01 00:28:50
  TRACK 29 AUDIO
    TITLE "2Q_t_1135-1152_29"
    INDEX 01 00:30:35
  TRACK 30 AUDIO
    TITLE "2Q_t_1135-1152_30"
    INDEX 01 00:31:07
  TRACK 31 AUDIO
    TITLE "2Q_t_1135-1152_31"
    INDEX 01 00:32:14
  TRACK 32 AUDIO
    TITLE "2Q_t_1135-1152_32"
    INDEX 01 00:32:63
  TRACK 33 AUDIO
    TITLE "2Q_t_1135-1152_33"
    INDEX 01 00:33:74
  TRACK 34 AUDIO
    TITLE "2Q_t_1135-1152_34"
    INDEX 01 00:34:44
  TRACK 35 AUDIO
    TITLE "2Q_t_1135-1152_35"
    INDEX 01 00:35:75
  TRACK 36 AUDIO
    TITLE "2Q_t_1135-1152_36"
    INDEX 01 00:36:47
  TRACK 37 AUDIO
    TITLE "2Q_t_1135-1152_37"
    INDEX 01 00:38:58
  TRACK 38 AUDIO
    TITLE "2Q_t_1135-1152_38"
    INDEX 01 00:39:28
  TRACK 39 AUDIO
    TITLE "2Q_t_1135-1152_39"
    INDEX 01 00:40:73
  TRACK 40 AUDIO
    TITLE "2Q_t_1135-1152_40"
    INDEX 01 00:41:50
  TRACK 41 AUDIO
    TITLE "2Q_t_1135-1152_41"
    INDEX 01 00:45:19
  TRACK 42 AUDIO
    TITLE "2Q_t_1135-1152_42"
    INDEX 01 00:45:64
  TRACK 43 AUDIO
    TITLE "2Q_t_1135-1152_43"
    INDEX 01 00:47:04
  TRACK 44 AUDIO
    TITLE "2Q_t_1135-1152_44"
    INDEX 01 00:47:55
  TRACK 45 AUDIO
    TITLE "2Q_t_1135-1152_45"
    INDEX 01 00:51:10
  TRACK 46 AUDIO
    TITLE "2Q_t_1135-1152_46"
    INDEX 01 00:51:55
  TRACK 47 AUDIO
    TITLE "2Q_t_1135-1152_47"
    INDEX 01 00:52:62
  TRACK 48 AUDIO
    TITLE "2Q_t_1135-1152_48"
    INDEX 01 00:53:32
  TRACK 49 AUDIO
    TITLE "2Q_t_1135-1152_49"
    INDEX 01 00:55:49
  TRACK 50 AUDIO
    TITLE "2Q_t_1135-1152_50"
    INDEX 01 00:56:19
  TRACK 51 AUDIO
    TITLE "2Q_t_1135-1152_51"
    INDEX 01 00:57:30
  TRACK 52 AUDIO
    TITLE "2Q_t_1135-1152_52"
    INDEX 01 00:58:02
  TRACK 53 AUDIO
    TITLE "2Q_t_1135-1152_53"
    INDEX 01 01:00:05
  TRACK 54 AUDIO
    TITLE "2Q_t_1135-1152_54"
    INDEX 01 01:00:50
  TRACK 55 AUDIO
    TITLE "2Q_t_1135-1152_55"
    INDEX 01 01:01:67
  TRACK 56 AUDIO
    TITLE "2Q_t_1135-1152_56"
    INDEX 01 01:02:45
  TRACK 57 AUDIO
    TITLE "2Q_t_1135-1152_57"
    INDEX 01 01:04:26
  TRACK 58 AUDIO
    TITLE "2Q_t_1135-1152_58"
    INDEX 01 01:04:71
  TRACK 59 AUDIO
    TITLE "2Q_t_1135-1152_59"
    INDEX 01 01:06:19
  TRACK 60 AUDIO
    TITLE "2Q_t_1135-1152_60"
    INDEX 01 01:06:72
  TRACK 61 AUDIO
    TITLE "2Q_t_1135-1152_61"
    INDEX 01 01:10:48
  TRACK 62 AUDIO
    TITLE "2Q_t_1135-1152_62"
    INDEX 01 01:11:18
  TRACK 63 AUDIO
    TITLE "2Q_t_1135-1152_63"
    INDEX 01 01:12:27
  TRACK 64 AUDIO
    TITLE "2Q_t_1135-1152_64"
    INDEX 01 01:13:01
  TRACK 65 AUDIO
    TITLE "2Q_t_1135-1152_65"
    INDEX 01 01:15:65
  TRACK 66 AUDIO
    TITLE "2Q_t_1135-1152_66"
    INDEX 01 01:16:37
  TRACK 67 AUDIO
    TITLE "2Q_t_1135-1152_67"
    INDEX 01 01:17:52
  TRACK 68 AUDIO
    TITLE "2Q_t_1135-1152_68"
    INDEX 01 01:18:24
  TRACK 69 AUDIO
    TITLE "2Q_t_1135-1152_69"
    INDEX 01 01:19:27
  TRACK 70 AUDIO
    TITLE "2Q_t_1135-1152_70"
    INDEX 01 01:20:01
  TRACK 71 AUDIO
    TITLE "2Q_t_1135-1152_71"
    INDEX 01 01:21:09
  TRACK 72 AUDIO
    TITLE "2Q_t_1135-1152_72"
    INDEX 01 01:21:56
  TRACK 73 AUDIO
    TITLE "2Q_t_1135-1152_73"
    INDEX 01 01:24:27
